<svg xmlns="http://www.w3.org/2000/svg" width="102" height="16" fill="none">
  <path fill="#3470FF" d="M101.071 7.645c-.683 0-1.307.04-1.872.119a9.207 9.207 0 0 0-1.832.472v7.527h-3.429V4.572h2.542l.512 1.32c.683-.551 1.353-.945 2.01-1.182a6.064 6.064 0 0 1 2.069-.354v3.29ZM92.299 15.645c-.42.092-.795.158-1.124.197-.315.04-.69.06-1.123.06-1.26 0-2.089-.408-2.483-1.222a6.995 6.995 0 0 1-1.655.926 5.052 5.052 0 0 1-1.813.315 3.366 3.366 0 0 1-1.596-.374 2.822 2.822 0 0 1-1.103-1.005 2.553 2.553 0 0 1-.394-1.38c0-.84.21-1.504.63-1.99.434-.499 1.012-.893 1.734-1.182.723-.302 1.82-.663 3.291-1.084l.591-.177V8.65c0-1.208-.552-1.813-1.655-1.813-.539 0-1.117.119-1.734.355-.617.237-1.327.618-2.128 1.143l-.65-2.365a13.75 13.75 0 0 1 2.719-1.202 9.931 9.931 0 0 1 2.956-.433c1.26 0 2.226.342 2.896 1.025.683.683 1.025 1.852 1.025 3.507v3.744c0 .289.059.499.177.63.118.119.309.178.572.178.25 0 .499-.033.748-.099l.118 2.325Zm-7.863-2.936c0 .263.066.454.197.572.145.118.368.177.67.177.552 0 1.202-.236 1.951-.71V10.66l-.295.099c-.986.354-1.656.67-2.01.945-.342.263-.513.598-.513 1.005ZM75.182 16c-1.629 0-3.008-.315-4.138-.946-1.13-.643-1.977-1.49-2.542-2.542a7.422 7.422 0 0 1-.827-3.468c0-1.235.289-2.377.867-3.428.59-1.051 1.465-1.892 2.62-2.522 1.156-.631 2.549-.946 4.178-.946 1.524 0 2.864.295 4.02.886l-.71 2.483a7.896 7.896 0 0 0-1.517-.59c-.525-.159-1.123-.237-1.793-.237-.854 0-1.596.197-2.227.59a3.75 3.75 0 0 0-1.418 1.577c-.316.657-.473 1.393-.473 2.207 0 1.287.341 2.345 1.024 3.172.683.815 1.662 1.222 2.936 1.222 1.09 0 2.266-.27 3.527-.808l.67 2.424c-.538.276-1.182.5-1.93.67-.75.17-1.505.256-2.267.256Z"/>
  <path fill="#101828" d="M61.784 0h3.428v15.764h-3.428V0ZM60.144 15.645c-.42.092-.795.158-1.123.197-.316.04-.69.06-1.124.06-1.26 0-2.088-.408-2.482-1.222a6.995 6.995 0 0 1-1.656.926 5.052 5.052 0 0 1-1.812.315 3.366 3.366 0 0 1-1.596-.374 2.822 2.822 0 0 1-1.104-1.005 2.553 2.553 0 0 1-.394-1.38c0-.84.21-1.504.63-1.99.434-.499 1.012-.893 1.735-1.182.722-.302 1.819-.663 3.29-1.084l.591-.177V8.65c0-1.208-.551-1.813-1.655-1.813-.538 0-1.116.119-1.734.355-.617.237-1.327.618-2.128 1.143l-.65-2.365c.893-.512 1.8-.913 2.72-1.202a9.93 9.93 0 0 1 2.955-.433c1.26 0 2.226.342 2.896 1.025.683.683 1.025 1.852 1.025 3.507v3.744c0 .289.059.499.177.63.119.119.309.178.572.178.25 0 .499-.033.748-.099l.119 2.325Zm-7.862-2.936c0 .263.065.454.197.572.144.118.367.177.67.177.551 0 1.202-.236 1.95-.71V10.66l-.295.099c-.985.354-1.655.67-2.01.945-.342.263-.512.598-.512 1.005ZM47.624 15.034a4.71 4.71 0 0 1-1.418.65 6.07 6.07 0 0 1-1.577.218c-1.392 0-2.43-.303-3.113-.907-.683-.617-1.025-1.497-1.025-2.64v-5.36h-1.675V5.557l2.109-.848.946-3.014h2.049V4.57h3.153v2.424H43.92v4.532c0 .696.111 1.189.335 1.478.223.289.558.433 1.005.433.578 0 1.189-.17 1.832-.512l.532 2.108ZM33.19 4.335c1.458 0 2.463.387 3.015 1.163.565.775.847 1.891.847 3.35v6.916h-3.428V9.28c0-.92-.112-1.557-.335-1.912-.21-.354-.624-.532-1.242-.532-.67 0-1.353.224-2.05.67v8.257H26.57V4.57h2.542l.355.927c1.287-.776 2.529-1.163 3.724-1.163ZM17.028 10.798c.066.933.296 1.622.69 2.069.394.447.998.67 1.813.67a4.37 4.37 0 0 0 1.675-.315c.525-.224 1.123-.552 1.793-.986l.926 2.168c-.696.565-1.386.972-2.07 1.222-.682.25-1.464.374-2.344.374-1.3 0-2.39-.25-3.27-.749-.881-.512-1.538-1.202-1.971-2.069-.42-.88-.63-1.878-.63-2.995 0-1.773.498-3.192 1.497-4.256.998-1.064 2.456-1.596 4.374-1.596 1.524 0 2.68.414 3.468 1.241.801.815 1.209 1.977 1.222 3.488 0 .591-.086 1.17-.256 1.734h-6.917Zm3.843-2.227c.013-.078.02-.183.02-.315-.014-.538-.158-.946-.434-1.222-.276-.289-.657-.433-1.143-.433-1.156 0-1.878.657-2.167 1.97h3.724ZM5.438 10.838H3.547v4.926H0v-13.4h5.36c1.918 0 3.317.329 4.197.986.88.643 1.32 1.661 1.32 3.054 0 1.813-.664 3.028-1.99 3.645l3.763 5.715H8.552l-3.114-4.926ZM3.547 8.373H5.36c.696 0 1.195-.144 1.497-.433.315-.29.473-.736.473-1.34 0-.63-.151-1.084-.453-1.36-.302-.275-.808-.413-1.517-.413H3.547v3.546Z"/>
</svg>
